solid CADClick
facet normal 0.86 -0.51 -0.001
 outer loop
  vertex -2.156 1.265 -0.4
  vertex -2.146 1.283 -0.4
  vertex -2.22 1.149 2.905
 endloop
endfacet
facet normal 0.856 -0.517 -0.002
 outer loop
  vertex -2.22 1.149 2.905
  vertex -2.146 1.283 -0.4
  vertex -2.135 1.301 -0.4
 endloop
endfacet
facet normal 0.861 -0.509 -0.001
 outer loop
  vertex -2.22 1.149 2.905
  vertex -2.135 1.301 -0.4
  vertex -2.074 1.396 3.041
 endloop
endfacet
facet normal 0.819 -0.574 0.001
 outer loop
  vertex -2.074 1.396 3.041
  vertex -2.135 1.301 -0.4
  vertex -1.951 1.563 -0.361
 endloop
endfacet
facet normal 0.797 -0.603 -0.001
 outer loop
  vertex -2.074 1.396 3.041
  vertex -1.951 1.563 -0.361
  vertex -1.906 1.618 3.189
 endloop
endfacet
facet normal 0.74 -0.673 0.001
 outer loop
  vertex -1.906 1.618 3.189
  vertex -1.951 1.563 -0.361
  vertex -1.741 1.794 -0.321
 endloop
endfacet
facet normal 0.691 -0.723 -0.004
 outer loop
  vertex -1.906 1.618 3.189
  vertex -1.741 1.794 -0.321
  vertex -1.52 1.985 3.498
 endloop
endfacet
facet normal 0.65 -0.76 0
 outer loop
  vertex -1.52 1.985 3.498
  vertex -1.741 1.794 -0.321
  vertex -1.503 1.998 -0.282
 endloop
endfacet
facet normal 0.548 -0.836 -0
 outer loop
  vertex -1.52 1.985 3.498
  vertex -1.503 1.998 -0.282
  vertex -1.234 2.174 -0.244
 endloop
endfacet
facet normal 0.95 -0.311 -0
 outer loop
  vertex -2.405 0.683 -0.283
  vertex -2.343 0.872 -0.343
  vertex -2.339 0.882 2.79
 endloop
endfacet
facet normal 0.922 -0.388 0
 outer loop
  vertex -2.339 0.882 2.79
  vertex -2.343 0.872 -0.343
  vertex -2.262 1.065 -0.385
 endloop
endfacet
facet normal 0.914 -0.406 -0.001
 outer loop
  vertex -2.339 0.882 2.79
  vertex -2.262 1.065 -0.385
  vertex -2.22 1.149 2.905
 endloop
endfacet
facet normal 0.887 -0.462 0.001
 outer loop
  vertex -2.22 1.149 2.905
  vertex -2.262 1.065 -0.385
  vertex -2.167 1.246 -0.4
 endloop
endfacet
facet normal 0.865 -0.502 -0.001
 outer loop
  vertex -2.22 1.149 2.905
  vertex -2.167 1.246 -0.4
  vertex -2.156 1.265 -0.4
 endloop
endfacet
facet normal 0.955 -0.296 -0.001
 outer loop
  vertex -2.339 0.882 2.79
  vertex -2.427 0.598 2.701
  vertex -2.405 0.683 -0.283
 endloop
endfacet
facet normal 0.972 -0.236 0.001
 outer loop
  vertex -2.405 0.683 -0.283
  vertex -2.427 0.598 2.701
  vertex -2.45 0.497 -0.2
 endloop
endfacet
facet normal 0.984 -0.18 -0.001
 outer loop
  vertex -2.427 0.598 2.701
  vertex -2.482 0.302 2.646
  vertex -2.45 0.497 -0.2
 endloop
endfacet
facet normal 0.984 -0.176 -0.001
 outer loop
  vertex -2.45 0.497 -0.2
  vertex -2.482 0.302 2.646
  vertex -2.471 0.38 -0.154
 endloop
endfacet
facet normal 0.992 -0.127 0
 outer loop
  vertex -2.471 0.38 -0.154
  vertex -2.482 0.302 2.646
  vertex -2.487 0.257 -0.128
 endloop
endfacet
facet normal 0.998 -0.061 -0.001
 outer loop
  vertex -2.487 0.257 -0.128
  vertex -2.482 0.302 2.646
  vertex -2.5 0 2.626
 endloop
endfacet
facet normal 0.999 -0.052 0
 outer loop
  vertex -2.487 0.257 -0.128
  vertex -2.5 0 2.626
  vertex -2.5 0 -0.111
 endloop
endfacet
facet normal 0.999 0.052 -0
 outer loop
  vertex -2.5 0 -0.111
  vertex -2.5 0 2.626
  vertex -2.487 -0.257 -0.128
 endloop
endfacet
facet normal 0.998 0.061 -0.001
 outer loop
  vertex -2.5 0 2.626
  vertex -2.482 -0.302 2.646
  vertex -2.487 -0.257 -0.128
 endloop
endfacet
facet normal 0.992 0.127 0
 outer loop
  vertex -2.487 -0.257 -0.128
  vertex -2.482 -0.302 2.646
  vertex -2.471 -0.38 -0.154
 endloop
endfacet
facet normal 0.984 0.18 -0.001
 outer loop
  vertex -2.482 -0.302 2.646
  vertex -2.427 -0.598 2.701
  vertex -2.471 -0.38 -0.154
 endloop
endfacet
facet normal 0.984 0.176 -0.002
 outer loop
  vertex -2.471 -0.38 -0.154
  vertex -2.427 -0.598 2.701
  vertex -2.45 -0.497 -0.2
 endloop
endfacet
facet normal 0.972 0.236 0.001
 outer loop
  vertex -2.45 -0.497 -0.2
  vertex -2.427 -0.598 2.701
  vertex -2.405 -0.683 -0.283
 endloop
endfacet
facet normal 0.955 0.296 -0.001
 outer loop
  vertex -2.405 -0.683 -0.283
  vertex -2.427 -0.598 2.701
  vertex -2.339 -0.882 2.79
 endloop
endfacet
facet normal 0.95 0.311 -0
 outer loop
  vertex -2.405 -0.683 -0.283
  vertex -2.339 -0.882 2.79
  vertex -2.343 -0.872 -0.343
 endloop
endfacet
facet normal 0.922 0.388 0
 outer loop
  vertex -2.343 -0.872 -0.343
  vertex -2.339 -0.882 2.79
  vertex -2.262 -1.065 -0.385
 endloop
endfacet
facet normal 0.914 0.406 -0.001
 outer loop
  vertex -2.339 -0.882 2.79
  vertex -2.22 -1.149 2.905
  vertex -2.262 -1.065 -0.385
 endloop
endfacet
facet normal 0.887 0.462 0.001
 outer loop
  vertex -2.262 -1.065 -0.385
  vertex -2.22 -1.149 2.905
  vertex -2.167 -1.246 -0.4
 endloop
endfacet
facet normal 0.865 0.502 -0.001
 outer loop
  vertex -2.167 -1.246 -0.4
  vertex -2.22 -1.149 2.905
  vertex -2.156 -1.265 -0.4
 endloop
endfacet
facet normal 0.861 0.509 -0.001
 outer loop
  vertex -2.156 -1.265 -0.4
  vertex -2.22 -1.149 2.905
  vertex -2.074 -1.396 3.041
 endloop
endfacet
facet normal 0.86 0.51 -0.001
 outer loop
  vertex -2.156 -1.265 -0.4
  vertex -2.074 -1.396 3.041
  vertex -2.146 -1.283 -0.4
 endloop
endfacet
facet normal 0.856 0.517 -0.001
 outer loop
  vertex -2.146 -1.283 -0.4
  vertex -2.074 -1.396 3.041
  vertex -2.135 -1.301 -0.4
 endloop
endfacet
facet normal 0.819 0.574 0.001
 outer loop
  vertex -2.135 -1.301 -0.4
  vertex -2.074 -1.396 3.041
  vertex -1.951 -1.563 -0.361
 endloop
endfacet
facet normal 0.797 0.603 -0.001
 outer loop
  vertex -1.951 -1.563 -0.361
  vertex -2.074 -1.396 3.041
  vertex -1.906 -1.618 3.189
 endloop
endfacet
facet normal 0.74 0.673 0.001
 outer loop
  vertex -1.951 -1.563 -0.361
  vertex -1.906 -1.618 3.189
  vertex -1.741 -1.794 -0.321
 endloop
endfacet
facet normal 0.691 0.723 -0.004
 outer loop
  vertex -1.741 -1.794 -0.321
  vertex -1.906 -1.618 3.189
  vertex -1.52 -1.985 3.498
 endloop
endfacet
facet normal 0.65 0.76 0
 outer loop
  vertex -1.741 -1.794 -0.321
  vertex -1.52 -1.985 3.498
  vertex -1.503 -1.998 -0.282
 endloop
endfacet
facet normal 0.548 0.837 -0
 outer loop
  vertex -1.503 -1.998 -0.282
  vertex -1.52 -1.985 3.498
  vertex -1.212 -2.186 3.696
 endloop
endfacet
facet normal 0.548 0.836 -0
 outer loop
  vertex -1.503 -1.998 -0.282
  vertex -1.212 -2.186 3.696
  vertex -1.234 -2.174 -0.244
 endloop
endfacet
facet normal 0.436 0.9 0
 outer loop
  vertex -1.234 -2.174 -0.244
  vertex -1.212 -2.186 3.696
  vertex -0.94 -2.316 -0.212
 endloop
endfacet
facet normal 0.414 0.91 -0.002
 outer loop
  vertex -1.212 -2.186 3.696
  vertex -0.848 -2.352 3.858
  vertex -0.94 -2.316 -0.212
 endloop
endfacet
facet normal 0.315 0.949 0.001
 outer loop
  vertex -0.94 -2.316 -0.212
  vertex -0.848 -2.352 3.858
  vertex -0.631 -2.419 -0.187
 endloop
endfacet
facet normal 0.259 0.966 -0.002
 outer loop
  vertex -0.848 -2.352 3.858
  vertex -0.439 -2.461 3.964
  vertex -0.631 -2.419 -0.187
 endloop
endfacet
facet normal 0.189 0.982 0.001
 outer loop
  vertex -0.631 -2.419 -0.187
  vertex -0.439 -2.461 3.964
  vertex -0.314 -2.48 -0.172
 endloop
endfacet
facet normal 0.093 0.996 -0.002
 outer loop
  vertex -0.439 -2.461 3.964
  vertex -0.021 -2.5 4
  vertex -0.314 -2.48 -0.172
 endloop
endfacet
facet normal 0.063 0.998 0
 outer loop
  vertex -0.314 -2.48 -0.172
  vertex -0.021 -2.5 4
  vertex -0 -2.5 -0.167
 endloop
endfacet
facet normal -0.063 0.998 -0
 outer loop
  vertex -0 -2.5 -0.167
  vertex -0.021 -2.5 4
  vertex 0.314 -2.48 -0.172
 endloop
endfacet
facet normal -0.076 0.997 -0.001
 outer loop
  vertex 0.314 -2.48 -0.172
  vertex -0.021 -2.5 4
  vertex 0.399 -2.468 3.965
 endloop
endfacet
facet normal -0.189 0.982 0.001
 outer loop
  vertex 0.314 -2.48 -0.172
  vertex 0.399 -2.468 3.965
  vertex 0.631 -2.419 -0.187
 endloop
endfacet
facet normal -0.243 0.97 -0.002
 outer loop
  vertex 0.631 -2.419 -0.187
  vertex 0.399 -2.468 3.965
  vertex 0.81 -2.365 3.859
 endloop
endfacet
facet normal -0.315 0.949 0.001
 outer loop
  vertex 0.631 -2.419 -0.187
  vertex 0.81 -2.365 3.859
  vertex 0.94 -2.316 -0.212
 endloop
endfacet
facet normal -0.399 0.917 -0.002
 outer loop
  vertex 0.94 -2.316 -0.212
  vertex 0.81 -2.365 3.859
  vertex 1.175 -2.207 3.697
 endloop
endfacet
facet normal -0.436 0.9 0.001
 outer loop
  vertex 0.94 -2.316 -0.212
  vertex 1.175 -2.207 3.697
  vertex 1.234 -2.174 -0.244
 endloop
endfacet
facet normal -0.534 0.846 -0.001
 outer loop
  vertex 1.234 -2.174 -0.244
  vertex 1.175 -2.207 3.697
  vertex 1.485 -2.011 3.498
 endloop
endfacet
facet normal -0.548 0.836 0
 outer loop
  vertex 1.234 -2.174 -0.244
  vertex 1.485 -2.011 3.498
  vertex 1.503 -1.998 -0.282
 endloop
endfacet
facet normal -0.637 0.771 -0
 outer loop
  vertex 1.503 -1.998 -0.282
  vertex 1.485 -2.011 3.498
  vertex 1.693 -1.839 3.337
 endloop
endfacet
facet normal -0.65 0.76 0.001
 outer loop
  vertex 1.503 -1.998 -0.282
  vertex 1.693 -1.839 3.337
  vertex 1.741 -1.794 -0.321
 endloop
endfacet
facet normal -0.717 0.697 -0.001
 outer loop
  vertex 1.741 -1.794 -0.321
  vertex 1.693 -1.839 3.337
  vertex 1.884 -1.643 3.178
 endloop
endfacet
facet normal -0.74 0.673 0.001
 outer loop
  vertex 1.741 -1.794 -0.321
  vertex 1.884 -1.643 3.178
  vertex 1.951 -1.563 -0.361
 endloop
endfacet
facet normal -0.79 0.613 -0.001
 outer loop
  vertex 1.951 -1.563 -0.361
  vertex 1.884 -1.643 3.178
  vertex 2.058 -1.419 3.024
 endloop
endfacet
facet normal -0.819 0.574 0.001
 outer loop
  vertex 1.951 -1.563 -0.361
  vertex 2.058 -1.419 3.024
  vertex 2.135 -1.301 -0.4
 endloop
endfacet
facet normal -0.855 0.518 -0.001
 outer loop
  vertex 2.135 -1.301 -0.4
  vertex 2.058 -1.419 3.024
  vertex 2.209 -1.17 2.883
 endloop
endfacet
facet normal -0.856 0.517 -0.001
 outer loop
  vertex 2.135 -1.301 -0.4
  vertex 2.209 -1.17 2.883
  vertex 2.146 -1.283 -0.4
 endloop
endfacet
facet normal -0.86 0.51 -0.001
 outer loop
  vertex 2.146 -1.283 -0.4
  vertex 2.209 -1.17 2.883
  vertex 2.156 -1.265 -0.4
 endloop
endfacet
facet normal -0.95 0.311 -0
 outer loop
  vertex 2.405 -0.683 -0.283
  vertex 2.343 -0.872 -0.343
  vertex 2.333 -0.899 2.762
 endloop
endfacet
facet normal -0.922 0.388 0
 outer loop
  vertex 2.333 -0.899 2.762
  vertex 2.343 -0.872 -0.343
  vertex 2.262 -1.065 -0.385
 endloop
endfacet
facet normal -0.91 0.414 -0.001
 outer loop
  vertex 2.333 -0.899 2.762
  vertex 2.262 -1.065 -0.385
  vertex 2.209 -1.17 2.883
 endloop
endfacet
facet normal -0.887 0.462 0.001
 outer loop
  vertex 2.209 -1.17 2.883
  vertex 2.262 -1.065 -0.385
  vertex 2.167 -1.246 -0.4
 endloop
endfacet
facet normal -0.865 0.502 -0.001
 outer loop
  vertex 2.209 -1.17 2.883
  vertex 2.167 -1.246 -0.4
  vertex 2.156 -1.265 -0.4
 endloop
endfacet
facet normal -0.953 0.302 -0.001
 outer loop
  vertex 2.333 -0.899 2.762
  vertex 2.424 -0.61 2.669
  vertex 2.405 -0.683 -0.283
 endloop
endfacet
facet normal -0.972 0.236 0.001
 outer loop
  vertex 2.405 -0.683 -0.283
  vertex 2.424 -0.61 2.669
  vertex 2.45 -0.497 -0.2
 endloop
endfacet
facet normal -0.983 0.184 -0.002
 outer loop
  vertex 2.424 -0.61 2.669
  vertex 2.481 -0.308 2.61
  vertex 2.45 -0.497 -0.2
 endloop
endfacet
facet normal -0.984 0.176 -0.001
 outer loop
  vertex 2.45 -0.497 -0.2
  vertex 2.481 -0.308 2.61
  vertex 2.471 -0.38 -0.154
 endloop
endfacet
facet normal -0.992 0.127 0
 outer loop
  vertex 2.471 -0.38 -0.154
  vertex 2.481 -0.308 2.61
  vertex 2.487 -0.257 -0.128
 endloop
endfacet
facet normal -0.998 0.062 -0.001
 outer loop
  vertex 2.487 -0.257 -0.128
  vertex 2.481 -0.308 2.61
  vertex 2.5 -0 2.59
 endloop
endfacet
facet normal -0.999 0.052 0
 outer loop
  vertex 2.487 -0.257 -0.128
  vertex 2.5 -0 2.59
  vertex 2.5 -0 -0.111
 endloop
endfacet
facet normal -0.999 -0.052 -0
 outer loop
  vertex 2.5 -0 -0.111
  vertex 2.5 -0 2.59
  vertex 2.487 0.257 -0.128
 endloop
endfacet
facet normal -0.998 -0.062 -0.001
 outer loop
  vertex 2.5 -0 2.59
  vertex 2.481 0.308 2.61
  vertex 2.487 0.257 -0.128
 endloop
endfacet
facet normal -0.992 -0.127 0
 outer loop
  vertex 2.487 0.257 -0.128
  vertex 2.481 0.308 2.61
  vertex 2.471 0.38 -0.154
 endloop
endfacet
facet normal -0.984 -0.176 -0.001
 outer loop
  vertex 2.471 0.38 -0.154
  vertex 2.481 0.308 2.61
  vertex 2.45 0.497 -0.2
 endloop
endfacet
facet normal -0.983 -0.184 -0.002
 outer loop
  vertex 2.45 0.497 -0.2
  vertex 2.481 0.308 2.61
  vertex 2.424 0.61 2.669
 endloop
endfacet
facet normal -0.972 -0.236 0.001
 outer loop
  vertex 2.45 0.497 -0.2
  vertex 2.424 0.61 2.669
  vertex 2.405 0.683 -0.283
 endloop
endfacet
facet normal -0.953 -0.302 -0.001
 outer loop
  vertex 2.405 0.683 -0.283
  vertex 2.424 0.61 2.669
  vertex 2.333 0.899 2.762
 endloop
endfacet
facet normal -0.95 -0.311 -0
 outer loop
  vertex 2.405 0.683 -0.283
  vertex 2.333 0.899 2.762
  vertex 2.343 0.872 -0.343
 endloop
endfacet
facet normal -0.922 -0.388 0
 outer loop
  vertex 2.343 0.872 -0.343
  vertex 2.333 0.899 2.762
  vertex 2.262 1.065 -0.385
 endloop
endfacet
facet normal -0.91 -0.414 -0.001
 outer loop
  vertex 2.333 0.899 2.762
  vertex 2.209 1.17 2.883
  vertex 2.262 1.065 -0.385
 endloop
endfacet
facet normal -0.887 -0.462 0.001
 outer loop
  vertex 2.262 1.065 -0.385
  vertex 2.209 1.17 2.883
  vertex 2.167 1.246 -0.4
 endloop
endfacet
facet normal 0.063 -0.998 0
 outer loop
  vertex -0.314 2.48 -0.172
  vertex -0 2.5 -0.167
  vertex -0.021 2.5 4
 endloop
endfacet
facet normal -0.063 -0.998 -0
 outer loop
  vertex -0.021 2.5 4
  vertex -0 2.5 -0.167
  vertex 0.314 2.48 -0.172
 endloop
endfacet
facet normal -0.076 -0.997 -0.001
 outer loop
  vertex -0.021 2.5 4
  vertex 0.314 2.48 -0.172
  vertex 0.399 2.468 3.965
 endloop
endfacet
facet normal -0.189 -0.982 0.001
 outer loop
  vertex 0.399 2.468 3.965
  vertex 0.314 2.48 -0.172
  vertex 0.631 2.419 -0.187
 endloop
endfacet
facet normal -0.243 -0.97 -0.002
 outer loop
  vertex 0.399 2.468 3.965
  vertex 0.631 2.419 -0.187
  vertex 0.81 2.365 3.859
 endloop
endfacet
facet normal -0.315 -0.949 0.001
 outer loop
  vertex 0.81 2.365 3.859
  vertex 0.631 2.419 -0.187
  vertex 0.94 2.316 -0.212
 endloop
endfacet
facet normal -0.399 -0.917 -0.002
 outer loop
  vertex 0.81 2.365 3.859
  vertex 0.94 2.316 -0.212
  vertex 1.175 2.207 3.697
 endloop
endfacet
facet normal -0.436 -0.9 0.001
 outer loop
  vertex 1.175 2.207 3.697
  vertex 0.94 2.316 -0.212
  vertex 1.234 2.174 -0.244
 endloop
endfacet
facet normal -0.534 -0.846 -0.001
 outer loop
  vertex 1.175 2.207 3.697
  vertex 1.234 2.174 -0.244
  vertex 1.485 2.011 3.498
 endloop
endfacet
facet normal -0.548 -0.836 0
 outer loop
  vertex 1.485 2.011 3.498
  vertex 1.234 2.174 -0.244
  vertex 1.503 1.998 -0.282
 endloop
endfacet
facet normal -0.637 -0.771 -0
 outer loop
  vertex 1.485 2.011 3.498
  vertex 1.503 1.998 -0.282
  vertex 1.693 1.839 3.337
 endloop
endfacet
facet normal -0.65 -0.76 0.001
 outer loop
  vertex 1.693 1.839 3.337
  vertex 1.503 1.998 -0.282
  vertex 1.741 1.794 -0.321
 endloop
endfacet
facet normal -0.717 -0.697 -0.001
 outer loop
  vertex 1.693 1.839 3.337
  vertex 1.741 1.794 -0.321
  vertex 1.884 1.643 3.178
 endloop
endfacet
facet normal -0.74 -0.673 0.001
 outer loop
  vertex 1.884 1.643 3.178
  vertex 1.741 1.794 -0.321
  vertex 1.951 1.563 -0.361
 endloop
endfacet
facet normal -0.79 -0.613 -0.001
 outer loop
  vertex 1.884 1.643 3.178
  vertex 1.951 1.563 -0.361
  vertex 2.058 1.419 3.024
 endloop
endfacet
facet normal -0.819 -0.574 0.001
 outer loop
  vertex 2.058 1.419 3.024
  vertex 1.951 1.563 -0.361
  vertex 2.135 1.301 -0.4
 endloop
endfacet
facet normal -0.855 -0.518 -0.001
 outer loop
  vertex 2.058 1.419 3.024
  vertex 2.135 1.301 -0.4
  vertex 2.209 1.17 2.883
 endloop
endfacet
facet normal -0.856 -0.517 -0.001
 outer loop
  vertex 2.209 1.17 2.883
  vertex 2.135 1.301 -0.4
  vertex 2.146 1.283 -0.4
 endloop
endfacet
facet normal -0.86 -0.51 -0.001
 outer loop
  vertex 2.209 1.17 2.883
  vertex 2.146 1.283 -0.4
  vertex 2.156 1.265 -0.4
 endloop
endfacet
facet normal 0.093 -0.996 -0.002
 outer loop
  vertex -0.021 2.5 4
  vertex -0.439 2.461 3.964
  vertex -0.314 2.48 -0.172
 endloop
endfacet
facet normal 0.189 -0.982 0.001
 outer loop
  vertex -0.314 2.48 -0.172
  vertex -0.439 2.461 3.964
  vertex -0.631 2.419 -0.187
 endloop
endfacet
facet normal 0.259 -0.966 -0.002
 outer loop
  vertex -0.439 2.461 3.964
  vertex -0.848 2.352 3.858
  vertex -0.631 2.419 -0.187
 endloop
endfacet
facet normal 0.315 -0.949 0.001
 outer loop
  vertex -0.631 2.419 -0.187
  vertex -0.848 2.352 3.858
  vertex -0.94 2.316 -0.212
 endloop
endfacet
facet normal 0.414 -0.91 -0.002
 outer loop
  vertex -0.848 2.352 3.858
  vertex -1.212 2.186 3.696
  vertex -0.94 2.316 -0.212
 endloop
endfacet
facet normal 0.436 -0.9 0
 outer loop
  vertex -0.94 2.316 -0.212
  vertex -1.212 2.186 3.696
  vertex -1.234 2.174 -0.244
 endloop
endfacet
facet normal 0.548 -0.837 -0
 outer loop
  vertex -1.212 2.186 3.696
  vertex -1.52 1.985 3.498
  vertex -1.234 2.174 -0.244
 endloop
endfacet
facet normal -0.865 -0.502 -0.001
 outer loop
  vertex 2.156 1.265 -0.4
  vertex 2.167 1.246 -0.4
  vertex 2.209 1.17 2.883
 endloop
endfacet
facet normal -0.911 0 -0.412
 outer loop
  vertex -2.45 0.497 -0.2
  vertex -2.471 0.38 -0.154
  vertex -2.45 3 -0.2
 endloop
endfacet
facet normal -0.895 -0.001 -0.447
 outer loop
  vertex -2.45 3 -0.2
  vertex -2.471 0.38 -0.154
  vertex -2.483 3 -0.134
 endloop
endfacet
facet normal -0.848 0 -0.53
 outer loop
  vertex -2.471 0.38 -0.154
  vertex -2.487 0.257 -0.128
  vertex -2.483 3 -0.134
 endloop
endfacet
facet normal -0.798 -0 -0.603
 outer loop
  vertex -2.483 3 -0.134
  vertex -2.487 0.257 -0.128
  vertex -2.5 0 -0.111
 endloop
endfacet
facet normal -0.759 -0.001 -0.651
 outer loop
  vertex -2.483 3 -0.134
  vertex -2.5 0 -0.111
  vertex -2.531 3 -0.078
 endloop
endfacet
facet normal -0.727 -0 -0.687
 outer loop
  vertex -2.531 3 -0.078
  vertex -2.5 0 -0.111
  vertex -2.531 -8.5 -0.078
 endloop
endfacet
facet normal -0.577 -0 -0.816
 outer loop
  vertex -2.531 3 -0.078
  vertex -2.531 -8.5 -0.078
  vertex -2.591 -8.5 -0.036
 endloop
endfacet
facet normal -0.759 0 -0.651
 outer loop
  vertex -2.531 -8.5 -0.078
  vertex -2.5 0 -0.111
  vertex -2.483 -8.5 -0.134
 endloop
endfacet
facet normal -0.798 0 -0.602
 outer loop
  vertex -2.483 -8.5 -0.134
  vertex -2.5 0 -0.111
  vertex -2.487 -0.257 -0.128
 endloop
endfacet
facet normal -0.848 -0 -0.53
 outer loop
  vertex -2.483 -8.5 -0.134
  vertex -2.487 -0.257 -0.128
  vertex -2.471 -0.38 -0.154
 endloop
endfacet
facet normal -0.911 -0 -0.412
 outer loop
  vertex -2.45 -0.497 -0.2
  vertex -2.45 -8.5 -0.2
  vertex -2.471 -0.38 -0.154
 endloop
endfacet
facet normal -0.895 0 -0.447
 outer loop
  vertex -2.471 -0.38 -0.154
  vertex -2.45 -8.5 -0.2
  vertex -2.483 -8.5 -0.134
 endloop
endfacet
facet normal -0.577 0 -0.816
 outer loop
  vertex -2.531 3 -0.078
  vertex -2.591 -8.5 -0.036
  vertex -2.591 3 -0.036
 endloop
endfacet
facet normal -0.361 -0 -0.933
 outer loop
  vertex -2.591 3 -0.036
  vertex -2.591 -8.5 -0.036
  vertex -2.66 -8.5 -0.009
 endloop
endfacet
facet normal -0.361 0 -0.933
 outer loop
  vertex -2.591 3 -0.036
  vertex -2.66 -8.5 -0.009
  vertex -2.66 3 -0.009
 endloop
endfacet
facet normal -0.123 -0 -0.992
 outer loop
  vertex -2.66 3 -0.009
  vertex -2.66 -8.5 -0.009
  vertex -2.733 3 0
 endloop
endfacet
facet normal -0.123 0 -0.992
 outer loop
  vertex -2.66 -8.5 -0.009
  vertex -2.733 -8.5 0
  vertex -2.733 3 0
 endloop
endfacet
facet normal -0.895 0 -0.447
 outer loop
  vertex -2.45 -8.5 -0.2
  vertex -2.45 -0.497 -0.2
  vertex -2.417 -8.5 -0.266
 endloop
endfacet
facet normal -0.878 0 -0.478
 outer loop
  vertex -2.417 -8.5 -0.266
  vertex -2.45 -0.497 -0.2
  vertex -2.405 -0.683 -0.283
 endloop
endfacet
facet normal -0.759 -0 -0.651
 outer loop
  vertex -2.417 -8.5 -0.266
  vertex -2.405 -0.683 -0.283
  vertex -2.369 -8.5 -0.322
 endloop
endfacet
facet normal -0.696 0 -0.718
 outer loop
  vertex -2.369 -8.5 -0.322
  vertex -2.405 -0.683 -0.283
  vertex -2.343 -0.872 -0.343
 endloop
endfacet
facet normal -0.577 -0 -0.816
 outer loop
  vertex -2.369 -8.5 -0.322
  vertex -2.343 -0.872 -0.343
  vertex -2.309 -8.5 -0.364
 endloop
endfacet
facet normal -0.454 0 -0.891
 outer loop
  vertex -2.309 -8.5 -0.364
  vertex -2.343 -0.872 -0.343
  vertex -2.262 -1.065 -0.385
 endloop
endfacet
facet normal -0.361 -0 -0.933
 outer loop
  vertex -2.309 -8.5 -0.364
  vertex -2.262 -1.065 -0.385
  vertex -2.24 -8.5 -0.391
 endloop
endfacet
facet normal -0.159 0 -0.987
 outer loop
  vertex -2.24 -8.5 -0.391
  vertex -2.262 -1.065 -0.385
  vertex -2.167 -1.246 -0.4
 endloop
endfacet
facet normal -0.123 0 -0.992
 outer loop
  vertex -2.24 -8.5 -0.391
  vertex -2.167 -1.246 -0.4
  vertex -2.167 -8.5 -0.4
 endloop
endfacet
facet normal 0 0 -1
 outer loop
  vertex -2.167 -1.246 -0.4
  vertex -2.156 -1.265 -0.4
  vertex -2.167 -8.5 -0.4
 endloop
endfacet
facet normal 0 0 -1
 outer loop
  vertex -2.167 -8.5 -0.4
  vertex -2.156 -1.265 -0.4
  vertex -2.146 -1.283 -0.4
 endloop
endfacet
facet normal 0 0 -1
 outer loop
  vertex -2.167 -8.5 -0.4
  vertex -2.146 -1.283 -0.4
  vertex -2.135 -1.301 -0.4
 endloop
endfacet
facet normal 0 -0 -1
 outer loop
  vertex -2.135 -1.301 -0.4
  vertex -2.135 -8.5 -0.4
  vertex -2.167 -8.5 -0.4
 endloop
endfacet
facet normal 0.206 0 -0.978
 outer loop
  vertex -2.135 -1.301 -0.4
  vertex -1.951 -1.563 -0.361
  vertex -2.135 -8.5 -0.4
 endloop
endfacet
facet normal 0.187 0.001 -0.982
 outer loop
  vertex -2.135 -8.5 -0.4
  vertex -1.951 -1.563 -0.361
  vertex -1.741 -1.794 -0.321
 endloop
endfacet
facet normal 0.165 0.002 -0.986
 outer loop
  vertex -2.135 -8.5 -0.4
  vertex -1.741 -1.794 -0.321
  vertex -1.503 -1.998 -0.282
 endloop
endfacet
facet normal 0.162 0.002 -0.987
 outer loop
  vertex -2.135 -8.5 -0.4
  vertex -1.503 -1.998 -0.282
  vertex -1.074 -8.5 -0.226
 endloop
endfacet
facet normal 0.139 0.001 -0.99
 outer loop
  vertex -1.074 -8.5 -0.226
  vertex -1.503 -1.998 -0.282
  vertex -1.234 -2.174 -0.244
 endloop
endfacet
facet normal 0.11 -0 -0.994
 outer loop
  vertex -1.074 -8.5 -0.226
  vertex -1.234 -2.174 -0.244
  vertex -0.94 -2.316 -0.212
 endloop
endfacet
facet normal 0.079 0 -0.997
 outer loop
  vertex -0.94 -2.316 -0.212
  vertex -0.631 -2.419 -0.187
  vertex -1.074 -8.5 -0.226
 endloop
endfacet
facet normal 0.054 0.002 -0.999
 outer loop
  vertex -1.074 -8.5 -0.226
  vertex -0.631 -2.419 -0.187
  vertex -0 -8.5 -0.167
 endloop
endfacet
facet normal 0.048 0.002 -0.999
 outer loop
  vertex -0.631 -2.419 -0.187
  vertex -0.314 -2.48 -0.172
  vertex -0 -8.5 -0.167
 endloop
endfacet
facet normal 0.016 0 -1
 outer loop
  vertex -0 -8.5 -0.167
  vertex -0.314 -2.48 -0.172
  vertex -0 -2.5 -0.167
 endloop
endfacet
facet normal -0.016 -0 -1
 outer loop
  vertex -0 -8.5 -0.167
  vertex -0 -2.5 -0.167
  vertex 0.314 -2.48 -0.172
 endloop
endfacet
facet normal -0.048 0.002 -0.999
 outer loop
  vertex 0.314 -2.48 -0.172
  vertex 0.631 -2.419 -0.187
  vertex -0 -8.5 -0.167
 endloop
endfacet
facet normal -0.054 0.002 -0.999
 outer loop
  vertex -0 -8.5 -0.167
  vertex 0.631 -2.419 -0.187
  vertex 1.074 -8.5 -0.226
 endloop
endfacet
facet normal -0.079 0 -0.997
 outer loop
  vertex 0.631 -2.419 -0.187
  vertex 0.94 -2.316 -0.212
  vertex 1.074 -8.5 -0.226
 endloop
endfacet
facet normal -0.11 -0 -0.994
 outer loop
  vertex 1.074 -8.5 -0.226
  vertex 0.94 -2.316 -0.212
  vertex 1.234 -2.174 -0.244
 endloop
endfacet
facet normal -0.139 0.001 -0.99
 outer loop
  vertex 1.074 -8.5 -0.226
  vertex 1.234 -2.174 -0.244
  vertex 1.503 -1.998 -0.282
 endloop
endfacet
facet normal -0.162 0.002 -0.987
 outer loop
  vertex 1.074 -8.5 -0.226
  vertex 1.503 -1.998 -0.282
  vertex 2.135 -8.5 -0.4
 endloop
endfacet
facet normal -0.165 0.002 -0.986
 outer loop
  vertex 2.135 -8.5 -0.4
  vertex 1.503 -1.998 -0.282
  vertex 1.741 -1.794 -0.321
 endloop
endfacet
facet normal -0.187 0.001 -0.982
 outer loop
  vertex 2.135 -8.5 -0.4
  vertex 1.741 -1.794 -0.321
  vertex 1.951 -1.563 -0.361
 endloop
endfacet
facet normal -0.206 0 -0.978
 outer loop
  vertex 1.951 -1.563 -0.361
  vertex 2.135 -1.301 -0.4
  vertex 2.135 -8.5 -0.4
 endloop
endfacet
facet normal 0 0 -1
 outer loop
  vertex 2.135 -8.5 -0.4
  vertex 2.135 -1.301 -0.4
  vertex 2.167 -8.5 -0.4
 endloop
endfacet
facet normal 0 0 -1
 outer loop
  vertex 2.167 -8.5 -0.4
  vertex 2.135 -1.301 -0.4
  vertex 2.146 -1.283 -0.4
 endloop
endfacet
facet normal 0 0 -1
 outer loop
  vertex 2.167 -8.5 -0.4
  vertex 2.146 -1.283 -0.4
  vertex 2.156 -1.265 -0.4
 endloop
endfacet
facet normal 0 0 -1
 outer loop
  vertex 2.156 -1.265 -0.4
  vertex 2.167 -1.246 -0.4
  vertex 2.167 -8.5 -0.4
 endloop
endfacet
facet normal 0.123 0 -0.992
 outer loop
  vertex 2.167 -8.5 -0.4
  vertex 2.167 -1.246 -0.4
  vertex 2.24 -8.5 -0.391
 endloop
endfacet
facet normal 0.159 0 -0.987
 outer loop
  vertex 2.24 -8.5 -0.391
  vertex 2.167 -1.246 -0.4
  vertex 2.262 -1.065 -0.385
 endloop
endfacet
facet normal 0.361 -0 -0.933
 outer loop
  vertex 2.24 -8.5 -0.391
  vertex 2.262 -1.065 -0.385
  vertex 2.309 -8.5 -0.364
 endloop
endfacet
facet normal 0.454 0 -0.891
 outer loop
  vertex 2.309 -8.5 -0.364
  vertex 2.262 -1.065 -0.385
  vertex 2.343 -0.872 -0.343
 endloop
endfacet
facet normal 0.577 -0 -0.816
 outer loop
  vertex 2.309 -8.5 -0.364
  vertex 2.343 -0.872 -0.343
  vertex 2.369 -8.5 -0.322
 endloop
endfacet
facet normal 0.696 0 -0.718
 outer loop
  vertex 2.369 -8.5 -0.322
  vertex 2.343 -0.872 -0.343
  vertex 2.405 -0.683 -0.283
 endloop
endfacet
facet normal 0.759 -0 -0.651
 outer loop
  vertex 2.369 -8.5 -0.322
  vertex 2.405 -0.683 -0.283
  vertex 2.417 -8.5 -0.266
 endloop
endfacet
facet normal 0.878 0 -0.478
 outer loop
  vertex 2.417 -8.5 -0.266
  vertex 2.405 -0.683 -0.283
  vertex 2.45 -0.497 -0.2
 endloop
endfacet
facet normal 0.895 0 -0.447
 outer loop
  vertex 2.417 -8.5 -0.266
  vertex 2.45 -0.497 -0.2
  vertex 2.45 -8.5 -0.2
 endloop
endfacet
facet normal 0.614 -0 0.789
 outer loop
  vertex 1.485 2.011 3.498
  vertex 1.693 1.839 3.337
  vertex 1.485 3 3.498
 endloop
endfacet
facet normal 0.64 0.008 0.768
 outer loop
  vertex 1.485 3 3.498
  vertex 1.693 1.839 3.337
  vertex 2.097 3 2.988
 endloop
endfacet
facet normal 0.643 0.006 0.766
 outer loop
  vertex 1.693 1.839 3.337
  vertex 1.884 1.643 3.178
  vertex 2.097 3 2.988
 endloop
endfacet
facet normal 0.662 0.001 0.749
 outer loop
  vertex 2.097 3 2.988
  vertex 1.884 1.643 3.178
  vertex 2.058 1.419 3.024
 endloop
endfacet
facet normal 0.682 -0 0.732
 outer loop
  vertex 2.097 3 2.988
  vertex 2.058 1.419 3.024
  vertex 2.209 1.17 2.883
 endloop
endfacet
facet normal 0.701 0.002 0.713
 outer loop
  vertex 2.209 1.17 2.883
  vertex 2.333 0.899 2.762
  vertex 2.097 3 2.988
 endloop
endfacet
facet normal 0.713 0.005 0.701
 outer loop
  vertex 2.097 3 2.988
  vertex 2.333 0.899 2.762
  vertex 2.656 3 2.42
 endloop
endfacet
facet normal 0.718 0.003 0.696
 outer loop
  vertex 2.333 0.899 2.762
  vertex 2.424 0.61 2.669
  vertex 2.656 3 2.42
 endloop
endfacet
facet normal 0.726 0.002 0.688
 outer loop
  vertex 2.656 3 2.42
  vertex 2.424 0.61 2.669
  vertex 2.481 0.308 2.61
 endloop
endfacet
facet normal 0.732 0.001 0.681
 outer loop
  vertex 2.656 3 2.42
  vertex 2.481 0.308 2.61
  vertex 2.5 -0 2.59
 endloop
endfacet
facet normal 0.738 0 0.675
 outer loop
  vertex 2.656 3 2.42
  vertex 2.5 -0 2.59
  vertex 2.656 -8.5 2.42
 endloop
endfacet
facet normal 0.73 -0 0.684
 outer loop
  vertex 2.656 -8.5 2.42
  vertex 2.5 -0 2.59
  vertex 2.481 -0.308 2.61
 endloop
endfacet
facet normal 0.723 -0.001 0.691
 outer loop
  vertex 2.656 -8.5 2.42
  vertex 2.481 -0.308 2.61
  vertex 2.424 -0.61 2.669
 endloop
endfacet
facet normal 0.714 -0.001 0.7
 outer loop
  vertex 2.424 -0.61 2.669
  vertex 2.333 -0.899 2.762
  vertex 2.656 -8.5 2.42
 endloop
endfacet
facet normal 0.713 -0.001 0.701
 outer loop
  vertex 2.656 -8.5 2.42
  vertex 2.333 -0.899 2.762
  vertex 2.097 -8.5 2.988
 endloop
endfacet
facet normal 0.7 -0 0.714
 outer loop
  vertex 2.333 -0.899 2.762
  vertex 2.209 -1.17 2.883
  vertex 2.097 -8.5 2.988
 endloop
endfacet
facet normal 0.682 0 0.731
 outer loop
  vertex 2.097 -8.5 2.988
  vertex 2.209 -1.17 2.883
  vertex 2.058 -1.419 3.024
 endloop
endfacet
facet normal 0.662 -0 0.75
 outer loop
  vertex 2.097 -8.5 2.988
  vertex 2.058 -1.419 3.024
  vertex 1.884 -1.643 3.178
 endloop
endfacet
facet normal 0.64 -0.001 0.768
 outer loop
  vertex 1.884 -1.643 3.178
  vertex 1.693 -1.839 3.337
  vertex 2.097 -8.5 2.988
 endloop
endfacet
facet normal 0.64 -0.001 0.768
 outer loop
  vertex 2.097 -8.5 2.988
  vertex 1.693 -1.839 3.337
  vertex 1.485 -8.5 3.498
 endloop
endfacet
facet normal 0.614 0 0.789
 outer loop
  vertex 1.693 -1.839 3.337
  vertex 1.485 -2.011 3.498
  vertex 1.485 -8.5 3.498
 endloop
endfacet
facet normal 0.779 -0 0.626
 outer loop
  vertex 2.656 -8.5 2.42
  vertex 3.155 -8.5 1.799
  vertex 2.656 3 2.42
 endloop
endfacet
facet normal 0.779 0 0.626
 outer loop
  vertex 2.656 3 2.42
  vertex 3.155 -8.5 1.799
  vertex 3.155 3 1.799
 endloop
endfacet
facet normal 0.838 -0 0.546
 outer loop
  vertex 3.155 -8.5 1.799
  vertex 3.59 -8.5 1.132
  vertex 3.155 3 1.799
 endloop
endfacet
facet normal 0.838 0 0.546
 outer loop
  vertex 3.155 3 1.799
  vertex 3.59 -8.5 1.132
  vertex 3.59 3 1.132
 endloop
endfacet
facet normal 0.888 -0 0.46
 outer loop
  vertex 3.956 -8.5 0.425
  vertex 3.956 3 0.425
  vertex 3.59 -8.5 1.132
 endloop
endfacet
facet normal 0.888 -0 0.46
 outer loop
  vertex 3.59 -8.5 1.132
  vertex 3.956 3 0.425
  vertex 3.59 3 1.132
 endloop
endfacet
facet normal 0.54 0 0.841
 outer loop
  vertex 1.485 -2.011 3.498
  vertex 1.175 -2.207 3.697
  vertex 1.485 -8.5 3.498
 endloop
endfacet
facet normal 0.512 -0.002 0.859
 outer loop
  vertex 1.485 -8.5 3.498
  vertex 1.175 -2.207 3.697
  vertex 1.025 -8.5 3.773
 endloop
endfacet
facet normal 0.405 0.001 0.914
 outer loop
  vertex 1.175 -2.207 3.697
  vertex 0.81 -2.365 3.859
  vertex 1.025 -8.5 3.773
 endloop
endfacet
facet normal 0.317 -0.002 0.948
 outer loop
  vertex 1.025 -8.5 3.773
  vertex 0.81 -2.365 3.859
  vertex 0.516 -8.5 3.942
 endloop
endfacet
facet normal 0.249 0.001 0.968
 outer loop
  vertex 0.81 -2.365 3.859
  vertex 0.399 -2.468 3.965
  vertex 0.516 -8.5 3.942
 endloop
endfacet
facet normal 0.107 -0.002 0.994
 outer loop
  vertex 0.516 -8.5 3.942
  vertex 0.399 -2.468 3.965
  vertex -0.017 -8.5 4
 endloop
endfacet
facet normal 0.083 0 0.997
 outer loop
  vertex 0.399 -2.468 3.965
  vertex -0.021 -2.5 4
  vertex -0.017 -8.5 4
 endloop
endfacet
facet normal -0.086 -0 0.996
 outer loop
  vertex -0.017 -8.5 4
  vertex -0.021 -2.5 4
  vertex -0.439 -2.461 3.964
 endloop
endfacet
facet normal -0.107 -0.002 0.994
 outer loop
  vertex -0.017 -8.5 4
  vertex -0.439 -2.461 3.964
  vertex -0.55 -8.5 3.942
 endloop
endfacet
facet normal -0.251 0.001 0.968
 outer loop
  vertex -0.55 -8.5 3.942
  vertex -0.439 -2.461 3.964
  vertex -0.848 -2.352 3.858
 endloop
endfacet
facet normal -0.317 -0.002 0.948
 outer loop
  vertex -0.55 -8.5 3.942
  vertex -0.848 -2.352 3.858
  vertex -1.059 -8.5 3.773
 endloop
endfacet
facet normal -0.406 0.001 0.914
 outer loop
  vertex -1.059 -8.5 3.773
  vertex -0.848 -2.352 3.858
  vertex -1.212 -2.186 3.696
 endloop
endfacet
facet normal -0.512 -0.002 0.859
 outer loop
  vertex -1.059 -8.5 3.773
  vertex -1.212 -2.186 3.696
  vertex -1.52 -8.5 3.498
 endloop
endfacet
facet normal -0.541 0 0.841
 outer loop
  vertex -1.52 -8.5 3.498
  vertex -1.212 -2.186 3.696
  vertex -1.52 -1.985 3.498
 endloop
endfacet
facet normal 0.954 0 0.298
 outer loop
  vertex 3.956 3 0.425
  vertex 3.956 -8.5 0.425
  vertex 3.978 3 0.353
 endloop
endfacet
facet normal 0.954 0 0.298
 outer loop
  vertex 3.978 3 0.353
  vertex 3.956 -8.5 0.425
  vertex 3.978 -8.5 0.353
 endloop
endfacet
facet normal 0.999 0 0.053
 outer loop
  vertex 3.978 3 0.353
  vertex 3.978 -8.5 0.353
  vertex 3.982 -8.5 0.279
 endloop
endfacet
facet normal 0.999 0 0.053
 outer loop
  vertex 3.978 3 0.353
  vertex 3.982 -8.5 0.279
  vertex 3.982 3 0.279
 endloop
endfacet
facet normal 0.981 0 -0.195
 outer loop
  vertex 3.982 3 0.279
  vertex 3.982 -8.5 0.279
  vertex 3.967 -8.5 0.205
 endloop
endfacet
facet normal 0.981 0 -0.195
 outer loop
  vertex 3.982 3 0.279
  vertex 3.967 -8.5 0.205
  vertex 3.967 3 0.205
 endloop
endfacet
facet normal 0.902 0 -0.432
 outer loop
  vertex 3.967 3 0.205
  vertex 3.967 -8.5 0.205
  vertex 3.935 3 0.138
 endloop
endfacet
facet normal 0.902 0 -0.432
 outer loop
  vertex 3.967 -8.5 0.205
  vertex 3.935 -8.5 0.138
  vertex 3.935 3 0.138
 endloop
endfacet
facet normal 0.767 0 -0.641
 outer loop
  vertex 3.935 3 0.138
  vertex 3.935 -8.5 0.138
  vertex 3.887 -8.5 0.08
 endloop
endfacet
facet normal 0.767 0 -0.641
 outer loop
  vertex 3.935 3 0.138
  vertex 3.887 -8.5 0.08
  vertex 3.887 3 0.08
 endloop
endfacet
facet normal 0.585 0 -0.811
 outer loop
  vertex 3.887 3 0.08
  vertex 3.887 -8.5 0.08
  vertex 3.827 -8.5 0.037
 endloop
endfacet
facet normal 0.585 0 -0.811
 outer loop
  vertex 3.887 3 0.08
  vertex 3.827 -8.5 0.037
  vertex 3.827 3 0.037
 endloop
endfacet
facet normal 0.366 0 -0.931
 outer loop
  vertex 3.827 3 0.037
  vertex 3.827 -8.5 0.037
  vertex 3.757 3 0.009
 endloop
endfacet
facet normal 0.366 0 -0.931
 outer loop
  vertex 3.827 -8.5 0.037
  vertex 3.757 -8.5 0.009
  vertex 3.757 3 0.009
 endloop
endfacet
facet normal 0.125 0 -0.992
 outer loop
  vertex 3.757 3 0.009
  vertex 3.757 -8.5 0.009
  vertex 3.683 -8.5 0
 endloop
endfacet
facet normal 0.125 0 -0.992
 outer loop
  vertex 3.757 3 0.009
  vertex 3.683 -8.5 0
  vertex 3.683 3 0
 endloop
endfacet
facet normal 0 0 -1
 outer loop
  vertex 3.683 -8.5 0
  vertex 2.733 -8.5 -0
  vertex 3.683 3 0
 endloop
endfacet
facet normal 0 0 -1
 outer loop
  vertex 3.683 3 0
  vertex 2.733 -8.5 -0
  vertex 2.733 3 -0
 endloop
endfacet
facet normal 0.911 0 -0.412
 outer loop
  vertex 2.45 -0.497 -0.2
  vertex 2.471 -0.38 -0.154
  vertex 2.45 -8.5 -0.2
 endloop
endfacet
facet normal 0.895 0 -0.447
 outer loop
  vertex 2.45 -8.5 -0.2
  vertex 2.471 -0.38 -0.154
  vertex 2.483 -8.5 -0.134
 endloop
endfacet
facet normal 0.848 -0 -0.53
 outer loop
  vertex 2.471 -0.38 -0.154
  vertex 2.487 -0.257 -0.128
  vertex 2.483 -8.5 -0.134
 endloop
endfacet
facet normal 0.798 0 -0.602
 outer loop
  vertex 2.483 -8.5 -0.134
  vertex 2.487 -0.257 -0.128
  vertex 2.5 -0 -0.111
 endloop
endfacet
facet normal 0.759 0 -0.651
 outer loop
  vertex 2.483 -8.5 -0.134
  vertex 2.5 -0 -0.111
  vertex 2.531 -8.5 -0.078
 endloop
endfacet
facet normal 0.727 0 -0.687
 outer loop
  vertex 2.531 -8.5 -0.078
  vertex 2.5 -0 -0.111
  vertex 2.531 3 -0.078
 endloop
endfacet
facet normal 0.577 0 -0.816
 outer loop
  vertex 2.531 -8.5 -0.078
  vertex 2.531 3 -0.078
  vertex 2.591 3 -0.036
 endloop
endfacet
facet normal 0.759 -0.001 -0.651
 outer loop
  vertex 2.531 3 -0.078
  vertex 2.5 -0 -0.111
  vertex 2.483 3 -0.134
 endloop
endfacet
facet normal 0.798 -0 -0.603
 outer loop
  vertex 2.483 3 -0.134
  vertex 2.5 -0 -0.111
  vertex 2.487 0.257 -0.128
 endloop
endfacet
facet normal 0.848 0 -0.53
 outer loop
  vertex 2.483 3 -0.134
  vertex 2.487 0.257 -0.128
  vertex 2.471 0.38 -0.154
 endloop
endfacet
facet normal 0.911 0 -0.412
 outer loop
  vertex 2.45 0.497 -0.2
  vertex 2.45 3 -0.2
  vertex 2.471 0.38 -0.154
 endloop
endfacet
facet normal 0.895 -0.001 -0.447
 outer loop
  vertex 2.471 0.38 -0.154
  vertex 2.45 3 -0.2
  vertex 2.483 3 -0.134
 endloop
endfacet
facet normal 0.577 0 -0.816
 outer loop
  vertex 2.531 -8.5 -0.078
  vertex 2.591 3 -0.036
  vertex 2.591 -8.5 -0.036
 endloop
endfacet
facet normal 0.361 0 -0.933
 outer loop
  vertex 2.591 -8.5 -0.036
  vertex 2.591 3 -0.036
  vertex 2.66 3 -0.009
 endloop
endfacet
facet normal 0.361 0 -0.933
 outer loop
  vertex 2.591 -8.5 -0.036
  vertex 2.66 3 -0.009
  vertex 2.66 -8.5 -0.009
 endloop
endfacet
facet normal 0.123 0 -0.992
 outer loop
  vertex 2.66 -8.5 -0.009
  vertex 2.66 3 -0.009
  vertex 2.733 -8.5 -0
 endloop
endfacet
facet normal 0.123 0 -0.992
 outer loop
  vertex 2.66 3 -0.009
  vertex 2.733 3 -0
  vertex 2.733 -8.5 -0
 endloop
endfacet
facet normal 0.895 0 -0.447
 outer loop
  vertex 2.45 3 -0.2
  vertex 2.45 0.497 -0.2
  vertex 2.417 3 -0.266
 endloop
endfacet
facet normal 0.878 -0.001 -0.479
 outer loop
  vertex 2.417 3 -0.266
  vertex 2.45 0.497 -0.2
  vertex 2.405 0.683 -0.283
 endloop
endfacet
facet normal 0.759 0.001 -0.651
 outer loop
  vertex 2.417 3 -0.266
  vertex 2.405 0.683 -0.283
  vertex 2.369 3 -0.322
 endloop
endfacet
facet normal 0.694 -0.001 -0.72
 outer loop
  vertex 2.369 3 -0.322
  vertex 2.405 0.683 -0.283
  vertex 2.343 0.872 -0.343
 endloop
endfacet
facet normal 0.577 0.001 -0.816
 outer loop
  vertex 2.369 3 -0.322
  vertex 2.343 0.872 -0.343
  vertex 2.309 3 -0.364
 endloop
endfacet
facet normal 0.452 -0.002 -0.892
 outer loop
  vertex 2.309 3 -0.364
  vertex 2.343 0.872 -0.343
  vertex 2.262 1.065 -0.385
 endloop
endfacet
facet normal 0.361 0.001 -0.933
 outer loop
  vertex 2.309 3 -0.364
  vertex 2.262 1.065 -0.385
  vertex 2.24 3 -0.391
 endloop
endfacet
facet normal 0.157 -0.001 -0.988
 outer loop
  vertex 2.24 3 -0.391
  vertex 2.262 1.065 -0.385
  vertex 2.167 1.246 -0.4
 endloop
endfacet
facet normal 0.123 0 -0.992
 outer loop
  vertex 2.24 3 -0.391
  vertex 2.167 1.246 -0.4
  vertex 2.167 3 -0.4
 endloop
endfacet
facet normal 0 0 -1
 outer loop
  vertex 2.167 1.246 -0.4
  vertex 2.156 1.265 -0.4
  vertex 2.167 3 -0.4
 endloop
endfacet
facet normal 0 0 -1
 outer loop
  vertex 2.167 3 -0.4
  vertex 2.156 1.265 -0.4
  vertex 2.146 1.283 -0.4
 endloop
endfacet
facet normal 0 0 -1
 outer loop
  vertex 2.167 3 -0.4
  vertex 2.146 1.283 -0.4
  vertex 2.135 1.301 -0.4
 endloop
endfacet
facet normal 0 0 -1
 outer loop
  vertex 2.135 1.301 -0.4
  vertex 2.135 3 -0.4
  vertex 2.167 3 -0.4
 endloop
endfacet
facet normal -0.206 0 -0.978
 outer loop
  vertex 2.135 1.301 -0.4
  vertex 1.951 1.563 -0.361
  vertex 2.135 3 -0.4
 endloop
endfacet
facet normal -0.189 -0.002 -0.982
 outer loop
  vertex 2.135 3 -0.4
  vertex 1.951 1.563 -0.361
  vertex 1.741 1.794 -0.321
 endloop
endfacet
facet normal -0.171 -0.008 -0.985
 outer loop
  vertex 2.135 3 -0.4
  vertex 1.741 1.794 -0.321
  vertex 1.503 1.998 -0.282
 endloop
endfacet
facet normal -0.152 -0.021 -0.988
 outer loop
  vertex 1.503 1.998 -0.282
  vertex 1.234 2.174 -0.244
  vertex 2.135 3 -0.4
 endloop
endfacet
facet normal -0.162 -0.009 -0.987
 outer loop
  vertex 2.135 3 -0.4
  vertex 1.234 2.174 -0.244
  vertex 1.074 3 -0.226
 endloop
endfacet
facet normal -0.109 0.001 -0.994
 outer loop
  vertex 1.234 2.174 -0.244
  vertex 0.94 2.316 -0.212
  vertex 1.074 3 -0.226
 endloop
endfacet
facet normal -0.081 -0.004 -0.997
 outer loop
  vertex 1.074 3 -0.226
  vertex 0.94 2.316 -0.212
  vertex 0.631 2.419 -0.187
 endloop
endfacet
facet normal -0.053 -0.026 -0.998
 outer loop
  vertex 1.074 3 -0.226
  vertex 0.631 2.419 -0.187
  vertex 0.314 2.48 -0.172
 endloop
endfacet
facet normal -0.054 -0.023 -0.998
 outer loop
  vertex 1.074 3 -0.226
  vertex 0.314 2.48 -0.172
  vertex -0 3 -0.167
 endloop
endfacet
facet normal -0.016 0 -1
 outer loop
  vertex -0 3 -0.167
  vertex 0.314 2.48 -0.172
  vertex -0 2.5 -0.167
 endloop
endfacet
facet normal 0.016 -0 -1
 outer loop
  vertex -0 3 -0.167
  vertex -0 2.5 -0.167
  vertex -0.314 2.48 -0.172
 endloop
endfacet
facet normal 0.054 -0.023 -0.998
 outer loop
  vertex -0 3 -0.167
  vertex -0.314 2.48 -0.172
  vertex -1.074 3 -0.226
 endloop
endfacet
facet normal 0.053 -0.026 -0.998
 outer loop
  vertex -1.074 3 -0.226
  vertex -0.314 2.48 -0.172
  vertex -0.631 2.419 -0.187
 endloop
endfacet
facet normal 0.081 -0.004 -0.997
 outer loop
  vertex -1.074 3 -0.226
  vertex -0.631 2.419 -0.187
  vertex -0.94 2.316 -0.212
 endloop
endfacet
facet normal 0.109 0.001 -0.994
 outer loop
  vertex -0.94 2.316 -0.212
  vertex -1.234 2.174 -0.244
  vertex -1.074 3 -0.226
 endloop
endfacet
facet normal 0.141 -0.005 -0.99
 outer loop
  vertex -1.074 3 -0.226
  vertex -1.234 2.174 -0.244
  vertex -1.503 1.998 -0.282
 endloop
endfacet
facet normal 0.162 -0.014 -0.987
 outer loop
  vertex -1.074 3 -0.226
  vertex -1.503 1.998 -0.282
  vertex -2.135 3 -0.4
 endloop
endfacet
facet normal 0.171 -0.008 -0.985
 outer loop
  vertex -2.135 3 -0.4
  vertex -1.503 1.998 -0.282
  vertex -1.741 1.794 -0.321
 endloop
endfacet
facet normal 0.189 -0.002 -0.982
 outer loop
  vertex -2.135 3 -0.4
  vertex -1.741 1.794 -0.321
  vertex -1.951 1.563 -0.361
 endloop
endfacet
facet normal 0.206 0 -0.978
 outer loop
  vertex -1.951 1.563 -0.361
  vertex -2.135 1.301 -0.4
  vertex -2.135 3 -0.4
 endloop
endfacet
facet normal -0 -0 -1
 outer loop
  vertex -2.135 3 -0.4
  vertex -2.135 1.301 -0.4
  vertex -2.167 3 -0.4
 endloop
endfacet
facet normal 0 0 -1
 outer loop
  vertex -2.167 3 -0.4
  vertex -2.135 1.301 -0.4
  vertex -2.146 1.283 -0.4
 endloop
endfacet
facet normal 0 0 -1
 outer loop
  vertex -2.167 3 -0.4
  vertex -2.146 1.283 -0.4
  vertex -2.156 1.265 -0.4
 endloop
endfacet
facet normal -0 0 -1
 outer loop
  vertex -2.156 1.265 -0.4
  vertex -2.167 1.246 -0.4
  vertex -2.167 3 -0.4
 endloop
endfacet
facet normal -0.123 -0 -0.992
 outer loop
  vertex -2.167 3 -0.4
  vertex -2.167 1.246 -0.4
  vertex -2.24 3 -0.391
 endloop
endfacet
facet normal -0.157 -0.001 -0.988
 outer loop
  vertex -2.24 3 -0.391
  vertex -2.167 1.246 -0.4
  vertex -2.262 1.065 -0.385
 endloop
endfacet
facet normal -0.361 0.001 -0.933
 outer loop
  vertex -2.24 3 -0.391
  vertex -2.262 1.065 -0.385
  vertex -2.309 3 -0.364
 endloop
endfacet
facet normal -0.452 -0.002 -0.892
 outer loop
  vertex -2.309 3 -0.364
  vertex -2.262 1.065 -0.385
  vertex -2.343 0.872 -0.343
 endloop
endfacet
facet normal -0.577 0.001 -0.816
 outer loop
  vertex -2.309 3 -0.364
  vertex -2.343 0.872 -0.343
  vertex -2.369 3 -0.322
 endloop
endfacet
facet normal -0.694 -0.001 -0.72
 outer loop
  vertex -2.369 3 -0.322
  vertex -2.343 0.872 -0.343
  vertex -2.405 0.683 -0.283
 endloop
endfacet
facet normal -0.759 0.001 -0.651
 outer loop
  vertex -2.369 3 -0.322
  vertex -2.405 0.683 -0.283
  vertex -2.417 3 -0.266
 endloop
endfacet
facet normal -0.878 -0.001 -0.479
 outer loop
  vertex -2.417 3 -0.266
  vertex -2.405 0.683 -0.283
  vertex -2.45 0.497 -0.2
 endloop
endfacet
facet normal -0.895 0 -0.447
 outer loop
  vertex -2.417 3 -0.266
  vertex -2.45 0.497 -0.2
  vertex -2.45 3 -0.2
 endloop
endfacet
facet normal 0 0 -1
 outer loop
  vertex -2.733 -8.5 0
  vertex -3.717 -8.5 -0
  vertex -2.733 3 0
 endloop
endfacet
facet normal 0 0 -1
 outer loop
  vertex -2.733 3 0
  vertex -3.717 -8.5 -0
  vertex -3.717 3 -0
 endloop
endfacet
facet normal -0.125 -0 -0.992
 outer loop
  vertex -3.717 3 -0
  vertex -3.717 -8.5 -0
  vertex -3.791 3 0.009
 endloop
endfacet
facet normal -0.125 -0 -0.992
 outer loop
  vertex -3.791 3 0.009
  vertex -3.717 -8.5 -0
  vertex -3.791 -8.5 0.009
 endloop
endfacet
facet normal -0.366 -0 -0.931
 outer loop
  vertex -3.791 3 0.009
  vertex -3.791 -8.5 0.009
  vertex -3.861 -8.5 0.037
 endloop
endfacet
facet normal -0.366 0 -0.931
 outer loop
  vertex -3.791 3 0.009
  vertex -3.861 -8.5 0.037
  vertex -3.861 3 0.037
 endloop
endfacet
facet normal -0.585 -0 -0.811
 outer loop
  vertex -3.861 3 0.037
  vertex -3.861 -8.5 0.037
  vertex -3.922 -8.5 0.08
 endloop
endfacet
facet normal -0.585 0 -0.811
 outer loop
  vertex -3.861 3 0.037
  vertex -3.922 -8.5 0.08
  vertex -3.922 3 0.08
 endloop
endfacet
facet normal -0.767 -0 -0.641
 outer loop
  vertex -3.922 3 0.08
  vertex -3.922 -8.5 0.08
  vertex -3.97 3 0.138
 endloop
endfacet
facet normal -0.767 0 -0.641
 outer loop
  vertex -3.922 -8.5 0.08
  vertex -3.97 -8.5 0.138
  vertex -3.97 3 0.138
 endloop
endfacet
facet normal -0.902 -0 -0.432
 outer loop
  vertex -3.97 3 0.138
  vertex -3.97 -8.5 0.138
  vertex -4.002 -8.5 0.205
 endloop
endfacet
facet normal -0.902 0 -0.432
 outer loop
  vertex -3.97 3 0.138
  vertex -4.002 -8.5 0.205
  vertex -4.002 3 0.205
 endloop
endfacet
facet normal -0.981 -0 -0.195
 outer loop
  vertex -4.002 3 0.205
  vertex -4.002 -8.5 0.205
  vertex -4.016 -8.5 0.279
 endloop
endfacet
facet normal -0.981 0 -0.195
 outer loop
  vertex -4.002 3 0.205
  vertex -4.016 -8.5 0.279
  vertex -4.016 3 0.279
 endloop
endfacet
facet normal -0.999 0 0.053
 outer loop
  vertex -4.016 3 0.279
  vertex -4.016 -8.5 0.279
  vertex -4.012 3 0.353
 endloop
endfacet
facet normal -0.999 0 0.053
 outer loop
  vertex -4.016 -8.5 0.279
  vertex -4.012 -8.5 0.353
  vertex -4.012 3 0.353
 endloop
endfacet
facet normal -0.954 0 0.298
 outer loop
  vertex -4.012 3 0.353
  vertex -4.012 -8.5 0.353
  vertex -3.99 -8.5 0.425
 endloop
endfacet
facet normal -0.954 0 0.298
 outer loop
  vertex -4.012 3 0.353
  vertex -3.99 -8.5 0.425
  vertex -3.99 3 0.425
 endloop
endfacet
facet normal -0.625 0 0.78
 outer loop
  vertex -1.52 -1.985 3.498
  vertex -1.906 -1.618 3.189
  vertex -1.52 -8.5 3.498
 endloop
endfacet
facet normal -0.64 -0.001 0.768
 outer loop
  vertex -1.52 -8.5 3.498
  vertex -1.906 -1.618 3.189
  vertex -2.132 -8.5 2.988
 endloop
endfacet
facet normal -0.66 -0 0.751
 outer loop
  vertex -1.906 -1.618 3.189
  vertex -2.074 -1.396 3.041
  vertex -2.132 -8.5 2.988
 endloop
endfacet
facet normal -0.679 0 0.734
 outer loop
  vertex -2.132 -8.5 2.988
  vertex -2.074 -1.396 3.041
  vertex -2.22 -1.149 2.905
 endloop
endfacet
facet normal -0.696 -0 0.718
 outer loop
  vertex -2.132 -8.5 2.988
  vertex -2.22 -1.149 2.905
  vertex -2.339 -0.882 2.79
 endloop
endfacet
facet normal -0.713 -0.001 0.701
 outer loop
  vertex -2.132 -8.5 2.988
  vertex -2.339 -0.882 2.79
  vertex -2.69 -8.5 2.42
 endloop
endfacet
facet normal -0.711 -0.001 0.703
 outer loop
  vertex -2.69 -8.5 2.42
  vertex -2.339 -0.882 2.79
  vertex -2.427 -0.598 2.701
 endloop
endfacet
facet normal -0.72 -0.001 0.694
 outer loop
  vertex -2.69 -8.5 2.42
  vertex -2.427 -0.598 2.701
  vertex -2.482 -0.302 2.646
 endloop
endfacet
facet normal -0.726 -0 0.687
 outer loop
  vertex -2.482 -0.302 2.646
  vertex -2.5 0 2.626
  vertex -2.69 -8.5 2.42
 endloop
endfacet
facet normal -0.736 0 0.677
 outer loop
  vertex -2.69 -8.5 2.42
  vertex -2.5 0 2.626
  vertex -2.69 3 2.42
 endloop
endfacet
facet normal -0.779 0 0.626
 outer loop
  vertex -2.69 -8.5 2.42
  vertex -2.69 3 2.42
  vertex -3.189 3 1.799
 endloop
endfacet
facet normal -0.729 0.001 0.684
 outer loop
  vertex -2.5 0 2.626
  vertex -2.482 0.302 2.646
  vertex -2.69 3 2.42
 endloop
endfacet
facet normal -0.723 0.002 0.691
 outer loop
  vertex -2.69 3 2.42
  vertex -2.482 0.302 2.646
  vertex -2.427 0.598 2.701
 endloop
endfacet
facet normal -0.715 0.004 0.699
 outer loop
  vertex -2.69 3 2.42
  vertex -2.427 0.598 2.701
  vertex -2.339 0.882 2.79
 endloop
endfacet
facet normal -0.713 0.004 0.701
 outer loop
  vertex -2.69 3 2.42
  vertex -2.339 0.882 2.79
  vertex -2.132 3 2.988
 endloop
endfacet
facet normal -0.697 0.001 0.717
 outer loop
  vertex -2.132 3 2.988
  vertex -2.339 0.882 2.79
  vertex -2.22 1.149 2.905
 endloop
endfacet
facet normal -0.679 -0 0.734
 outer loop
  vertex -2.132 3 2.988
  vertex -2.22 1.149 2.905
  vertex -2.074 1.396 3.041
 endloop
endfacet
facet normal -0.66 0.001 0.751
 outer loop
  vertex -2.074 1.396 3.041
  vertex -1.906 1.618 3.189
  vertex -2.132 3 2.988
 endloop
endfacet
facet normal -0.64 0.007 0.768
 outer loop
  vertex -2.132 3 2.988
  vertex -1.906 1.618 3.189
  vertex -1.52 3 3.498
 endloop
endfacet
facet normal -0.625 0 0.78
 outer loop
  vertex -1.906 1.618 3.189
  vertex -1.52 1.985 3.498
  vertex -1.52 3 3.498
 endloop
endfacet
facet normal -0.779 0 0.626
 outer loop
  vertex -2.69 -8.5 2.42
  vertex -3.189 3 1.799
  vertex -3.189 -8.5 1.799
 endloop
endfacet
facet normal -0.838 0 0.546
 outer loop
  vertex -3.189 -8.5 1.799
  vertex -3.189 3 1.799
  vertex -3.624 3 1.132
 endloop
endfacet
facet normal -0.838 0 0.546
 outer loop
  vertex -3.189 -8.5 1.799
  vertex -3.624 3 1.132
  vertex -3.624 -8.5 1.132
 endloop
endfacet
facet normal -0.888 0 0.46
 outer loop
  vertex -3.624 -8.5 1.132
  vertex -3.624 3 1.132
  vertex -3.99 -8.5 0.425
 endloop
endfacet
facet normal -0.888 0 0.46
 outer loop
  vertex -3.624 3 1.132
  vertex -3.99 3 0.425
  vertex -3.99 -8.5 0.425
 endloop
endfacet
facet normal -0.541 0 0.841
 outer loop
  vertex -1.52 1.985 3.498
  vertex -1.212 2.186 3.696
  vertex -1.52 3 3.498
 endloop
endfacet
facet normal -0.512 0.015 0.859
 outer loop
  vertex -1.52 3 3.498
  vertex -1.212 2.186 3.696
  vertex -1.059 3 3.773
 endloop
endfacet
facet normal -0.402 -0.011 0.915
 outer loop
  vertex -1.212 2.186 3.696
  vertex -0.848 2.352 3.858
  vertex -1.059 3 3.773
 endloop
endfacet
facet normal -0.317 0.022 0.948
 outer loop
  vertex -1.059 3 3.773
  vertex -0.848 2.352 3.858
  vertex -0.55 3 3.942
 endloop
endfacet
facet normal -0.249 -0.012 0.969
 outer loop
  vertex -0.848 2.352 3.858
  vertex -0.439 2.461 3.964
  vertex -0.55 3 3.942
 endloop
endfacet
facet normal -0.107 0.018 0.994
 outer loop
  vertex -0.55 3 3.942
  vertex -0.439 2.461 3.964
  vertex -0.017 3 4
 endloop
endfacet
facet normal -0.086 0.001 0.996
 outer loop
  vertex -0.439 2.461 3.964
  vertex -0.021 2.5 4
  vertex -0.017 3 4
 endloop
endfacet
facet normal 0.083 -0.001 0.997
 outer loop
  vertex -0.017 3 4
  vertex -0.021 2.5 4
  vertex 0.399 2.468 3.965
 endloop
endfacet
facet normal 0.107 0.019 0.994
 outer loop
  vertex -0.017 3 4
  vertex 0.399 2.468 3.965
  vertex 0.516 3 3.942
 endloop
endfacet
facet normal 0.247 -0.013 0.969
 outer loop
  vertex 0.516 3 3.942
  vertex 0.399 2.468 3.965
  vertex 0.81 2.365 3.859
 endloop
endfacet
facet normal 0.317 0.022 0.948
 outer loop
  vertex 0.516 3 3.942
  vertex 0.81 2.365 3.859
  vertex 1.025 3 3.773
 endloop
endfacet
facet normal 0.401 -0.011 0.916
 outer loop
  vertex 1.025 3 3.773
  vertex 0.81 2.365 3.859
  vertex 1.175 2.207 3.697
 endloop
endfacet
facet normal 0.512 0.016 0.859
 outer loop
  vertex 1.025 3 3.773
  vertex 1.175 2.207 3.697
  vertex 1.485 3 3.498
 endloop
endfacet
facet normal 0.54 0 0.841
 outer loop
  vertex 1.485 3 3.498
  vertex 1.175 2.207 3.697
  vertex 1.485 2.011 3.498
 endloop
endfacet
facet normal 0 1 0
 outer loop
  vertex 1.025 3 3.773
  vertex 1.485 3 3.498
  vertex -0 3 -0.167
 endloop
endfacet
facet normal 0 1 0
 outer loop
  vertex -0 3 -0.167
  vertex 1.485 3 3.498
  vertex 2.097 3 2.988
 endloop
endfacet
facet normal -0 1 0
 outer loop
  vertex -0 3 -0.167
  vertex 2.097 3 2.988
  vertex 1.074 3 -0.226
 endloop
endfacet
facet normal 0 1 0
 outer loop
  vertex 1.074 3 -0.226
  vertex 2.097 3 2.988
  vertex 2.656 3 2.42
 endloop
endfacet
facet normal 0 1 0
 outer loop
  vertex 1.074 3 -0.226
  vertex 2.656 3 2.42
  vertex 2.591 3 -0.036
 endloop
endfacet
facet normal 0 1 0
 outer loop
  vertex 2.591 3 -0.036
  vertex 2.656 3 2.42
  vertex 3.155 3 1.799
 endloop
endfacet
facet normal 0 1 0
 outer loop
  vertex 2.591 3 -0.036
  vertex 3.155 3 1.799
  vertex 2.66 3 -0.009
 endloop
endfacet
facet normal 0 1 0
 outer loop
  vertex 2.66 3 -0.009
  vertex 3.155 3 1.799
  vertex 2.733 3 -0
 endloop
endfacet
facet normal 0 1 0
 outer loop
  vertex 3.155 3 1.799
  vertex 3.59 3 1.132
  vertex 2.733 3 -0
 endloop
endfacet
facet normal 0 1 0
 outer loop
  vertex 2.733 3 -0
  vertex 3.59 3 1.132
  vertex 3.683 3 0
 endloop
endfacet
facet normal 0 1 0
 outer loop
  vertex 3.59 3 1.132
  vertex 3.956 3 0.425
  vertex 3.683 3 0
 endloop
endfacet
facet normal 0 1 0
 outer loop
  vertex 3.683 3 0
  vertex 3.956 3 0.425
  vertex 3.757 3 0.009
 endloop
endfacet
facet normal 0 1 0
 outer loop
  vertex 3.978 3 0.353
  vertex 3.982 3 0.279
  vertex 3.956 3 0.425
 endloop
endfacet
facet normal 0 1 0
 outer loop
  vertex 3.956 3 0.425
  vertex 3.982 3 0.279
  vertex 3.967 3 0.205
 endloop
endfacet
facet normal 0 1 0
 outer loop
  vertex 3.956 3 0.425
  vertex 3.967 3 0.205
  vertex 3.935 3 0.138
 endloop
endfacet
facet normal 0 1 -0
 outer loop
  vertex 3.935 3 0.138
  vertex 3.887 3 0.08
  vertex 3.956 3 0.425
 endloop
endfacet
facet normal 0 1 0
 outer loop
  vertex 3.956 3 0.425
  vertex 3.887 3 0.08
  vertex 3.827 3 0.037
 endloop
endfacet
facet normal 0 1 0
 outer loop
  vertex 3.956 3 0.425
  vertex 3.827 3 0.037
  vertex 3.757 3 0.009
 endloop
endfacet
facet normal 0 1 0
 outer loop
  vertex 2.591 3 -0.036
  vertex 2.531 3 -0.078
  vertex 1.074 3 -0.226
 endloop
endfacet
facet normal 0 1 0
 outer loop
  vertex 1.074 3 -0.226
  vertex 2.531 3 -0.078
  vertex 2.483 3 -0.134
 endloop
endfacet
facet normal -0 1 0
 outer loop
  vertex 1.074 3 -0.226
  vertex 2.483 3 -0.134
  vertex 2.135 3 -0.4
 endloop
endfacet
facet normal 0 1 0
 outer loop
  vertex 2.135 3 -0.4
  vertex 2.483 3 -0.134
  vertex 2.45 3 -0.2
 endloop
endfacet
facet normal 0 1 0
 outer loop
  vertex 2.135 3 -0.4
  vertex 2.45 3 -0.2
  vertex 2.167 3 -0.4
 endloop
endfacet
facet normal 0 1 0
 outer loop
  vertex 2.167 3 -0.4
  vertex 2.45 3 -0.2
  vertex 2.24 3 -0.391
 endloop
endfacet
facet normal 0 1 -0
 outer loop
  vertex 2.417 3 -0.266
  vertex 2.369 3 -0.322
  vertex 2.45 3 -0.2
 endloop
endfacet
facet normal 0 1 0
 outer loop
  vertex 2.45 3 -0.2
  vertex 2.369 3 -0.322
  vertex 2.309 3 -0.364
 endloop
endfacet
facet normal 0 1 0
 outer loop
  vertex 2.45 3 -0.2
  vertex 2.309 3 -0.364
  vertex 2.24 3 -0.391
 endloop
endfacet
facet normal -0 1 -0
 outer loop
  vertex -2.66 3 -0.009
  vertex -3.189 3 1.799
  vertex -2.591 3 -0.036
 endloop
endfacet
facet normal 0 1 0
 outer loop
  vertex -2.591 3 -0.036
  vertex -3.189 3 1.799
  vertex -2.69 3 2.42
 endloop
endfacet
facet normal -0 1 -0
 outer loop
  vertex -2.591 3 -0.036
  vertex -2.69 3 2.42
  vertex -1.074 3 -0.226
 endloop
endfacet
facet normal 0 1 0
 outer loop
  vertex -1.074 3 -0.226
  vertex -2.69 3 2.42
  vertex -2.132 3 2.988
 endloop
endfacet
facet normal 0 1 -0
 outer loop
  vertex -1.074 3 -0.226
  vertex -2.132 3 2.988
  vertex -0 3 -0.167
 endloop
endfacet
facet normal 0 1 0
 outer loop
  vertex -0 3 -0.167
  vertex -2.132 3 2.988
  vertex -1.52 3 3.498
 endloop
endfacet
facet normal 0 1 0
 outer loop
  vertex -0 3 -0.167
  vertex -1.52 3 3.498
  vertex -1.059 3 3.773
 endloop
endfacet
facet normal 0 1 -0
 outer loop
  vertex -2.167 3 -0.4
  vertex -2.45 3 -0.2
  vertex -2.135 3 -0.4
 endloop
endfacet
facet normal 0 1 0
 outer loop
  vertex -2.135 3 -0.4
  vertex -2.45 3 -0.2
  vertex -2.483 3 -0.134
 endloop
endfacet
facet normal 0 1 -0
 outer loop
  vertex -2.135 3 -0.4
  vertex -2.483 3 -0.134
  vertex -1.074 3 -0.226
 endloop
endfacet
facet normal 0 1 0
 outer loop
  vertex -1.074 3 -0.226
  vertex -2.483 3 -0.134
  vertex -2.531 3 -0.078
 endloop
endfacet
facet normal 0 1 0
 outer loop
  vertex -1.074 3 -0.226
  vertex -2.531 3 -0.078
  vertex -2.591 3 -0.036
 endloop
endfacet
facet normal 0 1 0
 outer loop
  vertex -2.167 3 -0.4
  vertex -2.24 3 -0.391
  vertex -2.45 3 -0.2
 endloop
endfacet
facet normal 0 1 0
 outer loop
  vertex -2.45 3 -0.2
  vertex -2.24 3 -0.391
  vertex -2.309 3 -0.364
 endloop
endfacet
facet normal 0 1 0
 outer loop
  vertex -2.45 3 -0.2
  vertex -2.309 3 -0.364
  vertex -2.369 3 -0.322
 endloop
endfacet
facet normal 0 1 0
 outer loop
  vertex -2.369 3 -0.322
  vertex -2.417 3 -0.266
  vertex -2.45 3 -0.2
 endloop
endfacet
facet normal 0 1 0
 outer loop
  vertex -2.66 3 -0.009
  vertex -2.733 3 0
  vertex -3.189 3 1.799
 endloop
endfacet
facet normal 0 1 0
 outer loop
  vertex -3.189 3 1.799
  vertex -2.733 3 0
  vertex -3.624 3 1.132
 endloop
endfacet
facet normal 0 1 0
 outer loop
  vertex -2.733 3 0
  vertex -3.717 3 -0
  vertex -3.624 3 1.132
 endloop
endfacet
facet normal 0 1 0
 outer loop
  vertex -3.624 3 1.132
  vertex -3.717 3 -0
  vertex -3.99 3 0.425
 endloop
endfacet
facet normal 0 1 0
 outer loop
  vertex -3.717 3 -0
  vertex -3.791 3 0.009
  vertex -3.99 3 0.425
 endloop
endfacet
facet normal 0 1 0
 outer loop
  vertex -3.99 3 0.425
  vertex -3.791 3 0.009
  vertex -3.861 3 0.037
 endloop
endfacet
facet normal 0 1 0
 outer loop
  vertex -3.99 3 0.425
  vertex -3.861 3 0.037
  vertex -3.922 3 0.08
 endloop
endfacet
facet normal 0 1 0
 outer loop
  vertex -3.922 3 0.08
  vertex -3.97 3 0.138
  vertex -3.99 3 0.425
 endloop
endfacet
facet normal 0 1 0
 outer loop
  vertex -3.99 3 0.425
  vertex -3.97 3 0.138
  vertex -4.002 3 0.205
 endloop
endfacet
facet normal 0 1 0
 outer loop
  vertex -3.99 3 0.425
  vertex -4.002 3 0.205
  vertex -4.016 3 0.279
 endloop
endfacet
facet normal 0 1 0
 outer loop
  vertex -4.016 3 0.279
  vertex -4.012 3 0.353
  vertex -3.99 3 0.425
 endloop
endfacet
facet normal -0 1 0
 outer loop
  vertex -1.059 3 3.773
  vertex -0.55 3 3.942
  vertex -0 3 -0.167
 endloop
endfacet
facet normal 0 1 0
 outer loop
  vertex -0 3 -0.167
  vertex -0.55 3 3.942
  vertex -0.017 3 4
 endloop
endfacet
facet normal 0 1 -0
 outer loop
  vertex -0 3 -0.167
  vertex -0.017 3 4
  vertex 0.516 3 3.942
 endloop
endfacet
facet normal 0 1 0
 outer loop
  vertex 0.516 3 3.942
  vertex 1.025 3 3.773
  vertex -0 3 -0.167
 endloop
endfacet
facet normal -0 -1 0
 outer loop
  vertex 3.757 -8.5 0.009
  vertex 3.956 -8.5 0.425
  vertex 3.683 -8.5 0
 endloop
endfacet
facet normal 0 -1 0
 outer loop
  vertex 3.683 -8.5 0
  vertex 3.956 -8.5 0.425
  vertex 3.59 -8.5 1.132
 endloop
endfacet
facet normal -0 -1 0
 outer loop
  vertex 3.683 -8.5 0
  vertex 3.59 -8.5 1.132
  vertex 2.733 -8.5 -0
 endloop
endfacet
facet normal 0 -1 0
 outer loop
  vertex 2.733 -8.5 -0
  vertex 3.59 -8.5 1.132
  vertex 3.155 -8.5 1.799
 endloop
endfacet
facet normal -0 -1 0
 outer loop
  vertex 2.733 -8.5 -0
  vertex 3.155 -8.5 1.799
  vertex 2.66 -8.5 -0.009
 endloop
endfacet
facet normal -0 -1 0
 outer loop
  vertex 2.66 -8.5 -0.009
  vertex 3.155 -8.5 1.799
  vertex 2.591 -8.5 -0.036
 endloop
endfacet
facet normal 0 -1 0
 outer loop
  vertex 3.757 -8.5 0.009
  vertex 3.827 -8.5 0.037
  vertex 3.956 -8.5 0.425
 endloop
endfacet
facet normal 0 -1 0
 outer loop
  vertex 3.956 -8.5 0.425
  vertex 3.827 -8.5 0.037
  vertex 3.887 -8.5 0.08
 endloop
endfacet
facet normal 0 -1 0
 outer loop
  vertex 3.956 -8.5 0.425
  vertex 3.887 -8.5 0.08
  vertex 3.935 -8.5 0.138
 endloop
endfacet
facet normal 0 -1 0
 outer loop
  vertex 3.935 -8.5 0.138
  vertex 3.967 -8.5 0.205
  vertex 3.956 -8.5 0.425
 endloop
endfacet
facet normal 0 -1 0
 outer loop
  vertex 3.956 -8.5 0.425
  vertex 3.967 -8.5 0.205
  vertex 3.982 -8.5 0.279
 endloop
endfacet
facet normal 0 -1 0
 outer loop
  vertex 3.956 -8.5 0.425
  vertex 3.982 -8.5 0.279
  vertex 3.978 -8.5 0.353
 endloop
endfacet
facet normal -0 -1 0
 outer loop
  vertex 3.155 -8.5 1.799
  vertex 2.656 -8.5 2.42
  vertex 2.591 -8.5 -0.036
 endloop
endfacet
facet normal -0 -1 0
 outer loop
  vertex 2.591 -8.5 -0.036
  vertex 2.656 -8.5 2.42
  vertex 1.074 -8.5 -0.226
 endloop
endfacet
facet normal 0 -1 0
 outer loop
  vertex 2.591 -8.5 -0.036
  vertex 1.074 -8.5 -0.226
  vertex 2.531 -8.5 -0.078
 endloop
endfacet
facet normal 0 -1 0
 outer loop
  vertex 2.531 -8.5 -0.078
  vertex 1.074 -8.5 -0.226
  vertex 2.483 -8.5 -0.134
 endloop
endfacet
facet normal -0 -1 0
 outer loop
  vertex 2.656 -8.5 2.42
  vertex 2.097 -8.5 2.988
  vertex 1.074 -8.5 -0.226
 endloop
endfacet
facet normal 0 -1 0
 outer loop
  vertex 1.074 -8.5 -0.226
  vertex 2.097 -8.5 2.988
  vertex -0 -8.5 -0.167
 endloop
endfacet
facet normal -0 -1 0
 outer loop
  vertex 2.097 -8.5 2.988
  vertex 1.485 -8.5 3.498
  vertex -0 -8.5 -0.167
 endloop
endfacet
facet normal 0 -1 0
 outer loop
  vertex -0 -8.5 -0.167
  vertex 1.485 -8.5 3.498
  vertex 1.025 -8.5 3.773
 endloop
endfacet
facet normal 0 -1 0
 outer loop
  vertex -0 -8.5 -0.167
  vertex 1.025 -8.5 3.773
  vertex 0.516 -8.5 3.942
 endloop
endfacet
facet normal -0 -1 0
 outer loop
  vertex 0.516 -8.5 3.942
  vertex -0.017 -8.5 4
  vertex -0 -8.5 -0.167
 endloop
endfacet
facet normal 0 -1 0
 outer loop
  vertex -0 -8.5 -0.167
  vertex -0.017 -8.5 4
  vertex -0.55 -8.5 3.942
 endloop
endfacet
facet normal 0 -1 0
 outer loop
  vertex -0 -8.5 -0.167
  vertex -0.55 -8.5 3.942
  vertex -1.059 -8.5 3.773
 endloop
endfacet
facet normal 0 -1 -0
 outer loop
  vertex -1.059 -8.5 3.773
  vertex -1.52 -8.5 3.498
  vertex -0 -8.5 -0.167
 endloop
endfacet
facet normal 0 -1 0
 outer loop
  vertex -0 -8.5 -0.167
  vertex -1.52 -8.5 3.498
  vertex -2.132 -8.5 2.988
 endloop
endfacet
facet normal -0 -1 0
 outer loop
  vertex -0 -8.5 -0.167
  vertex -2.132 -8.5 2.988
  vertex -1.074 -8.5 -0.226
 endloop
endfacet
facet normal 0 -1 0
 outer loop
  vertex -1.074 -8.5 -0.226
  vertex -2.132 -8.5 2.988
  vertex -2.69 -8.5 2.42
 endloop
endfacet
facet normal 0 -1 0
 outer loop
  vertex -1.074 -8.5 -0.226
  vertex -2.69 -8.5 2.42
  vertex -2.591 -8.5 -0.036
 endloop
endfacet
facet normal 0 -1 0
 outer loop
  vertex -2.591 -8.5 -0.036
  vertex -2.69 -8.5 2.42
  vertex -3.189 -8.5 1.799
 endloop
endfacet
facet normal 0 -1 0
 outer loop
  vertex -2.591 -8.5 -0.036
  vertex -3.189 -8.5 1.799
  vertex -2.66 -8.5 -0.009
 endloop
endfacet
facet normal 0 -1 0
 outer loop
  vertex -2.66 -8.5 -0.009
  vertex -3.189 -8.5 1.799
  vertex -2.733 -8.5 0
 endloop
endfacet
facet normal 0 -1 -0
 outer loop
  vertex -3.189 -8.5 1.799
  vertex -3.624 -8.5 1.132
  vertex -2.733 -8.5 0
 endloop
endfacet
facet normal -0 -1 0
 outer loop
  vertex -2.733 -8.5 0
  vertex -3.624 -8.5 1.132
  vertex -3.717 -8.5 -0
 endloop
endfacet
facet normal 0 -1 0
 outer loop
  vertex -3.624 -8.5 1.132
  vertex -3.99 -8.5 0.425
  vertex -3.717 -8.5 -0
 endloop
endfacet
facet normal 0 -1 0
 outer loop
  vertex -3.717 -8.5 -0
  vertex -3.99 -8.5 0.425
  vertex -3.791 -8.5 0.009
 endloop
endfacet
facet normal 0 -1 -0
 outer loop
  vertex -4.012 -8.5 0.353
  vertex -4.016 -8.5 0.279
  vertex -3.99 -8.5 0.425
 endloop
endfacet
facet normal 0 -1 0
 outer loop
  vertex -3.99 -8.5 0.425
  vertex -4.016 -8.5 0.279
  vertex -4.002 -8.5 0.205
 endloop
endfacet
facet normal 0 -1 -0
 outer loop
  vertex -3.99 -8.5 0.425
  vertex -4.002 -8.5 0.205
  vertex -3.97 -8.5 0.138
 endloop
endfacet
facet normal 0 -1 0
 outer loop
  vertex -3.97 -8.5 0.138
  vertex -3.922 -8.5 0.08
  vertex -3.99 -8.5 0.425
 endloop
endfacet
facet normal 0 -1 0
 outer loop
  vertex -3.99 -8.5 0.425
  vertex -3.922 -8.5 0.08
  vertex -3.861 -8.5 0.037
 endloop
endfacet
facet normal 0 -1 0
 outer loop
  vertex -3.99 -8.5 0.425
  vertex -3.861 -8.5 0.037
  vertex -3.791 -8.5 0.009
 endloop
endfacet
facet normal 0 -1 0
 outer loop
  vertex -2.591 -8.5 -0.036
  vertex -2.531 -8.5 -0.078
  vertex -1.074 -8.5 -0.226
 endloop
endfacet
facet normal 0 -1 0
 outer loop
  vertex -1.074 -8.5 -0.226
  vertex -2.531 -8.5 -0.078
  vertex -2.483 -8.5 -0.134
 endloop
endfacet
facet normal -0 -1 0
 outer loop
  vertex -1.074 -8.5 -0.226
  vertex -2.483 -8.5 -0.134
  vertex -2.135 -8.5 -0.4
 endloop
endfacet
facet normal 0 -1 0
 outer loop
  vertex -2.135 -8.5 -0.4
  vertex -2.483 -8.5 -0.134
  vertex -2.45 -8.5 -0.2
 endloop
endfacet
facet normal 0 -1 0
 outer loop
  vertex -2.135 -8.5 -0.4
  vertex -2.45 -8.5 -0.2
  vertex -2.167 -8.5 -0.4
 endloop
endfacet
facet normal 0 -1 0
 outer loop
  vertex -2.167 -8.5 -0.4
  vertex -2.45 -8.5 -0.2
  vertex -2.24 -8.5 -0.391
 endloop
endfacet
facet normal 0 -1 0
 outer loop
  vertex -2.417 -8.5 -0.266
  vertex -2.369 -8.5 -0.322
  vertex -2.45 -8.5 -0.2
 endloop
endfacet
facet normal 0 -1 0
 outer loop
  vertex -2.45 -8.5 -0.2
  vertex -2.369 -8.5 -0.322
  vertex -2.309 -8.5 -0.364
 endloop
endfacet
facet normal 0 -1 0
 outer loop
  vertex -2.45 -8.5 -0.2
  vertex -2.309 -8.5 -0.364
  vertex -2.24 -8.5 -0.391
 endloop
endfacet
facet normal 0 -1 0
 outer loop
  vertex 1.074 -8.5 -0.226
  vertex 2.135 -8.5 -0.4
  vertex 2.483 -8.5 -0.134
 endloop
endfacet
facet normal 0 -1 0
 outer loop
  vertex 2.483 -8.5 -0.134
  vertex 2.135 -8.5 -0.4
  vertex 2.45 -8.5 -0.2
 endloop
endfacet
facet normal 0 -1 0
 outer loop
  vertex 2.135 -8.5 -0.4
  vertex 2.167 -8.5 -0.4
  vertex 2.45 -8.5 -0.2
 endloop
endfacet
facet normal 0 -1 0
 outer loop
  vertex 2.45 -8.5 -0.2
  vertex 2.167 -8.5 -0.4
  vertex 2.24 -8.5 -0.391
 endloop
endfacet
facet normal 0 -1 0
 outer loop
  vertex 2.45 -8.5 -0.2
  vertex 2.24 -8.5 -0.391
  vertex 2.309 -8.5 -0.364
 endloop
endfacet
facet normal 0 -1 0
 outer loop
  vertex 2.309 -8.5 -0.364
  vertex 2.369 -8.5 -0.322
  vertex 2.45 -8.5 -0.2
 endloop
endfacet
facet normal 0 -1 0
 outer loop
  vertex 2.45 -8.5 -0.2
  vertex 2.369 -8.5 -0.322
  vertex 2.417 -8.5 -0.266
 endloop
endfacet
endsolid CADClick
